<svg xmlns="http://www.w3.org/2000/svg" viewBox="0 0 128 128"><path fill="#F90" d="M38.1 66.9c0 2.1.2 3.8.6 5.1s1 2.3 1.7 3.2c.3.3.4.7.4 1 0 .4-.3.9-.8 1.3l-2.7 1.8c-.4.2-.7.4-1 .4-.4 0-.8-.2-1.2-.6-.5-.6-1-1.2-1.4-1.8-.4-.7-.8-1.4-1.2-2.3-3.2 3.7-7.1 5.6-11.8 5.6-3.4 0-6.1-1-8.1-2.9-2-2-3-4.5-3-7.7 0-3.4 1.2-6.2 3.6-8.3 2.4-2.1 5.6-3.1 9.6-3.1 1.3 0 2.7.1 4.2.3 1.4.2 2.9.5 4.5.8V56c0-3-.6-5.1-1.9-6.3-1.3-1.2-3.5-1.8-6.6-1.8-1.4 0-2.9.2-4.4.5s-3 .8-4.4 1.3c-.7.3-1.1.4-1.4.5-.3.1-.5.1-.7.1-.6 0-.9-.4-.9-1.3v-2.1c0-.7.1-1.2.3-1.4.2-.3.6-.5 1.1-.8 1.4-.7 3.1-1.3 5.1-1.8 2-.5 4.1-.7 6.3-.7 4.8 0 8.3 1.1 10.5 3.2 2.2 2.2 3.3 5.4 3.3 9.8v12.9zm-16.3 6.1c1.3 0 2.6-.2 4-.7s2.7-1.3 3.8-2.5c.7-.8 1.2-1.6 1.4-2.6.2-1 .4-2.2.4-3.6v-1.7c-1.1-.3-2.3-.5-3.6-.7-1.3-.2-2.5-.2-3.7-.2-2.6 0-4.5.5-5.8 1.6s-1.9 2.6-1.9 4.6c0 1.8.5 3.2 1.4 4.1 1 .9 2.3 1.4 4 1.4zm32.3 4.3c-.8 0-1.3-.1-1.6-.4-.3-.3-.6-.9-.8-1.7L42 47.8c-.3-.8-.4-1.4-.4-1.7 0-.7.3-1 1-1h4.2c.8 0 1.3.1 1.6.4.3.3.6.9.8 1.7l6.8 26.8 6.3-26.8c.2-.9.5-1.4.8-1.7.3-.3.9-.4 1.7-.4h3.4c.8 0 1.4.1 1.7.4.3.3.6.9.8 1.7l6.4 27.1 7-27.1c.3-.9.5-1.4.8-1.7.3-.3.9-.4 1.6-.4h4c.7 0 1 .3 1 1 0 .2 0 .4-.1.6 0 .2-.1.5-.3 1L80 75.1c-.3.9-.5 1.4-.8 1.7s-.9.4-1.6.4h-3.7c-.8 0-1.3-.1-1.7-.4-.3-.3-.6-.9-.8-1.7l-6.3-26.1-6.2 26.1c-.2.9-.5 1.4-.8 1.7-.3.3-.9.4-1.7.4h-3.7zM109 80.6c-2 0-4-.2-5.9-.7-1.9-.5-3.4-1-4.5-1.7-.7-.4-1.1-.8-1.3-1.2-.2-.4-.2-.8-.2-1.2v-2.2c0-.9.3-1.3 1-1.3.3 0 .5 0 .8.1.3.1.7.3 1.1.5 1.5.7 3.1 1.2 4.9 1.6 1.7.4 3.4.5 5.2.5 2.7 0 4.9-.5 6.4-1.4 1.5-1 2.3-2.3 2.3-4.1 0-1.2-.4-2.2-1.2-3-.8-.8-2.3-1.6-4.5-2.3l-6.4-2c-3.2-1-5.6-2.5-7-4.5-1.5-2-2.2-4.2-2.2-6.5 0-1.9.4-3.5 1.2-5 .8-1.4 1.9-2.7 3.3-3.7 1.4-1 2.9-1.8 4.7-2.3s3.7-.8 5.8-.8c1 0 2.1.1 3.1.2 1.1.2 2.1.4 3 .6.9.3 1.8.5 2.6.8.8.3 1.4.6 1.9.9.6.4 1.1.8 1.3 1.2.2.4.4.9.4 1.5v2c0 .9-.3 1.4-1 1.4-.3 0-.9-.2-1.6-.5-2.4-1.1-5.1-1.7-8.1-1.7-2.5 0-4.4.4-5.8 1.2-1.4.8-2.1 2.1-2.1 3.9 0 1.2.4 2.3 1.3 3.1.9.8 2.5 1.7 4.9 2.4l6.3 2c3.2 1 5.5 2.4 6.9 4.2 1.4 1.8 2.1 3.9 2.1 6.2 0 1.9-.4 3.7-1.2 5.2-.8 1.5-2 2.9-3.4 4s-3.1 2-5 2.6c-2.1.7-4.2 1-6.6 1z"/><path fill="#F90" d="M118.8 97c-13.3 9.8-32.7 15-49.3 15-23.3 0-44.3-8.6-60.2-23-.1-.1-.2-.1-.1-.3.1-.1.2 0 .3 0 17.1 9.9 38.3 15.9 60.2 15.9 14.8 0 31-3.1 45.9-9.4.6-.3 1.1.4.5.8z"/><path fill="#F90" d="M124.4 90.3c-.2-.2-.4-.3-.6-.3h-.1c-1.1.1-9.2 1.1-12.7 1.5-.4 0-.7.4-.3.8.1.1.2.2.3.2 2.9 3.1 5.3 5 7 6.7.2.2.5.2.7.1 1.5-.7 5.2-2.4 5.8-3.2.2-.2.2-.5-.1-.8z"/></svg>
